<svg xmlns="http://www.w3.org/2000/svg" xmlns:xlink="http://www.w3.org/1999/xlink" style="vertical-align:-2.005ex" width="44.508ex" height="5.634ex" viewBox="0 -1562.8 19162.9 2425.9"><defs><path id="h" stroke-width="1" d="M60 749l4 1h22l28-24q94-85 137-212t43-264q0-68-10-131T261 12t-37-88-38-67-41-51-32-33-23-19l-4-4H63q-3 0-5 3t-3 9q1 1 11 13Q221-64 221 250T66 725q-10 12-11 13 0 8 5 11z"/><path id="a" stroke-width="1" d="M128 619q-7 7-11 9t-16 3-43 3H25v46h572v-4q2-6 14-116t14-116v-4h-40v4q-1 3-3 21-4 35-12 61t-17 45-25 30-30 18-41 10-46 4-58 1q-87 0-102-1t-18-11v-1q-1-2-1-124V376h54q73 2 91 9 36 16 39 84v24h40V213h-40v20q-1 35-8 55t-25 29-34 11-52 2h-65V114q0-57 5-62 6-5 52-5h102q37 0 61 3t53 12 47 30 32 54q10 26 15 54t8 47 5 23v3h40v-3q-1-3-20-133T610 3V0H25v46h33q42 1 51 3t19 12v558z"/><path id="c" stroke-width="1" d="M255 0q-15 3-115 3Q48 3 39 0h-7v46h15q72 3 92 42 1 3 53 157t103 308 53 155q3 8 18 8h10q20-1 24-7 2-2 108-319L617 67q7-13 19-16t51-5h30V0h-9q-9 3-127 3-123 0-144-3h-10v46h13q70 0 70 18 0 2-24 74l-24 71H229l-20-59q-20-59-20-65 0-13 20-26t50-13h5V0h-9zm192 255L345 557 244 256q0-1 101-1h102z"/><path id="d" stroke-width="1" d="M234 637h-8q-25 0-30 1t-5 11q0 27 11 33 2 1 97 1h88q11 0 14-6 211-496 215-509l54 213q53 211 53 225 0 27-64 31-24 0-24 11 0 2 2 12 4 16 6 19t10 4q3 0 31-1t83-2q50 0 76 1t30 1q15 0 15-10 0-22-8-30-2-5-22-5-71-4-89-40L620 7q-2-7-21-7-14 0-17 2-3 3-129 303L326 604l-65-260Q196 88 196 79q5-33 72-33h10q6-5 6-8t-2-19q-4-13-10-19h-13q-31 2-108 2H63Q49 2 46 1q-15 0-15 9 0 4 3 16t5 14q2 6 23 6 68 3 88 39 4 6 71 277l68 272q-2 1-55 3z"/><path id="e" stroke-width="1" d="M94 250q0 69 10 131t23 107 37 88 38 67 42 52 33 34 25 21h17q14 0 14-9 0-3-17-21t-41-53-49-86-42-138-17-193 17-192 41-139 49-86 42-53 17-21q0-9-15-9h-16l-28 24q-94 85-137 212T94 250z"/><path id="f" stroke-width="1" d="M52 289q7 42 54 97t116 56q35 0 64-18t43-45q42 63 101 63 37 0 64-22t28-59q0-29-14-47t-27-22-23-4q-19 0-31 11t-12 29q0 46 50 63-11 13-40 13-13 0-19-2-38-16-56-66-60-221-60-258 0-28 16-40t35-12q37 0 73 33t49 81q3 10 6 11t16 2h4q15 0 15-8 0-1-2-11-16-57-62-101T333-11q-70 0-106 63-41-62-94-62h-6q-49 0-70 26T35 71q0 32 19 52t45 20q43 0 43-42 0-20-12-35t-23-20-13-5l-3-1q0-1 6-4t16-7 19-3q36 0 62 45 9 16 23 68t28 108 16 66q5 27 5 39 0 28-15 40t-34 12q-40 0-75-32t-49-82q-2-9-5-10t-16-2H58q-6 6-6 11z"/><path id="g" stroke-width="1" d="M21 287q1 6 3 16t12 38 20 47 33 37 46 17q36 0 60-18t30-34 6-21q0-2 1-2l11 11q61 64 139 64 54 0 87-27t34-79-38-157-38-127q0-26 17-26 6 0 9 1 29 5 52 38t35 80q2 8 20 8 20 0 20-8 0-1-4-15-8-29-22-57t-46-56-69-27q-47 0-68 27t-21 56q0 19 36 120t37 152q0 59-44 59h-5q-86 0-145-101l-7-12-33-134Q156 26 151 16q-13-27-43-27-13 0-21 6T76 7t-2 10q0 13 38 163t40 163q1 5 1 23 0 39-24 39-38 0-63-100-6-20-6-21-2-6-19-6H27q-6 6-6 9z"/><path id="b" stroke-width="1" d="M132 622q-7 7-11 9t-16 3-43 3H29v46h106q86 0 97-1t17-7q1-1 105-277l104-274 104 274q104 276 106 277 3 6 15 7t98 1h106v-46h-33q-40-1-51-3t-18-12V61q6-10 17-12t52-3h33V0h-11q-21 3-140 3-131 0-140-3h-11v46h33q42 1 51 3t19 12v552l-1 19Q454 14 450 7q-4-6-20-6t-20 6q-1 2-118 309L176 624v-18q-1-18-1-63t0-80 0-107l1-270q11-36 85-40h17V0h-9q-15 3-115 3Q52 3 37 0h-8v46h17q32 2 52 10t24 13 10 17v536z"/><path id="i" stroke-width="1" d="M56 347q0 13 14 20h637q15-8 15-20 0-11-14-19l-318-1H72q-16 5-16 20zm0-194q0 15 16 20h636q14-10 14-20 0-13-15-20H70q-14 7-14 20z"/><path id="j" stroke-width="1" d="M109 429q-27 0-43 18t-16 44q0 71 53 123t132 52q91 0 152-56t62-145q0-43-20-82t-48-68-80-74q-36-31-100-92l-59-56 76-1q157 0 167 5 7 2 24 89v3h40v-3q-1-3-13-91T421 3V0H50v31q0 7 6 15t30 35q29 32 50 56 9 10 34 37t34 37 29 33 28 34 23 30 21 32 15 29 13 32 7 30 3 33q0 63-34 109t-97 46q-33 0-58-17t-35-33-10-19q0-1 5-1 18 0 37-14t19-46q0-25-16-42t-45-18z"/><path id="k" stroke-width="1" d="M56 237v13l14 20h299v150l1 150q10 13 19 13 13 0 20-15V270h298q15-8 15-20t-15-20H409V-68q-8-14-18-14h-4q-12 0-18 14v298H70q-14 7-14 20z"/><path id="l" stroke-width="1" d="M84 237v13l14 20h581q15-8 15-20t-15-20H98q-14 7-14 20z"/><path id="m" stroke-width="1" d="M213 578l-13-5q-14-5-40-10t-58-7H83v46h19q47 2 87 15t56 24 28 22q2 3 12 3 9 0 17-6V361l1-300q7-7 12-9t24-4 62-2h26V0h-11q-21 3-159 3-136 0-157-3H88v46h64q16 0 25 1t16 3 8 2 6 5 6 4v517z"/><path id="n" stroke-width="1" d="M78 60q0 24 17 42t43 18q24 0 42-16t19-43q0-25-17-43T139 0 96 17 78 60z"/></defs><g fill="currentColor" stroke="currentColor" stroke-width="0" transform="scale(1 -1)"><use xlink:href="#a"/><use x="681" xlink:href="#b"/><use x="1599" xlink:href="#c"/><use x="3322" y="-213" transform="scale(.707)" xlink:href="#d"/><use x="3077" xlink:href="#e"/><g transform="translate(3467)"><use xlink:href="#f"/><use x="809" y="-213" transform="scale(.707)" xlink:href="#g"/></g><use x="4564" xlink:href="#h"/><use x="5231" xlink:href="#i"/><path stroke="none" d="M6407 220h12356v60H6407z"/><g transform="translate(6467 725)"><use xlink:href="#j"/><g transform="translate(500)"><use xlink:href="#f"/><use x="809" y="-213" transform="scale(.707)" xlink:href="#g"/></g><use x="1819" xlink:href="#k"/><use x="2820" xlink:href="#e"/><use x="3210" xlink:href="#d"/><use x="4320" xlink:href="#l"/><use x="5321" xlink:href="#m"/><use x="5822" xlink:href="#h"/><g transform="translate(6378)"><use xlink:href="#a"/><use x="681" xlink:href="#b"/><use x="1599" xlink:href="#c"/><use x="3322" y="-213" transform="scale(.707)" xlink:href="#d"/></g><use x="9455" xlink:href="#e"/><g transform="translate(9845)"><use xlink:href="#f"/><g transform="matrix(.707 0 0 .707 572 -150)"><use xlink:href="#g"/><use x="600" xlink:href="#l"/><use x="1379" xlink:href="#m"/></g></g><use x="11846" xlink:href="#h"/></g><g transform="translate(11279 -686)"><use xlink:href="#d"/><use x="1110" xlink:href="#k"/><use x="2111" xlink:href="#m"/></g><use x="18884" xlink:href="#n"/></g></svg>